<svg width="18" height="17" viewBox="0 0 18 17" fill="none" xmlns="http://www.w3.org/2000/svg">
<path d="M6.5 8.5L8.16667 10.1667L11.5 6.83333M16.5 8.5C16.5 9.48491 16.306 10.4602 15.9291 11.3701C15.5522 12.2801 14.9997 13.1069 14.3033 13.8033C13.6069 14.4997 12.7801 15.0522 11.8701 15.4291C10.9602 15.806 9.98491 16 9 16C8.01509 16 7.03982 15.806 6.12987 15.4291C5.21993 15.0522 4.39314 14.4997 3.6967 13.8033C3.00026 13.1069 2.44781 12.2801 2.0709 11.3701C1.69399 10.4602 1.5 9.48491 1.5 8.5C1.5 6.51088 2.29018 4.60322 3.6967 3.1967C5.10322 1.79018 7.01088 1 9 1C10.9891 1 12.8968 1.79018 14.3033 3.1967C15.7098 4.60322 16.5 6.51088 16.5 8.5Z" stroke="#3B79A7" stroke-width="2" stroke-linecap="round" stroke-linejoin="round"/>
</svg>
