<?xml version="1.0" encoding="UTF-8" standalone="no"?>
<!-- Created with Inkscape (http://www.inkscape.org/) -->

<svg
   xmlns:dc="http://purl.org/dc/elements/1.1/"
   xmlns:cc="http://creativecommons.org/ns#"
   xmlns:rdf="http://www.w3.org/1999/02/22-rdf-syntax-ns#"
   xmlns:svg="http://www.w3.org/2000/svg"
   xmlns="http://www.w3.org/2000/svg"
   xmlns:sodipodi="http://sodipodi.sourceforge.net/DTD/sodipodi-0.dtd"
   xmlns:inkscape="http://www.inkscape.org/namespaces/inkscape"
   version="1.0"
   width="209"
   height="53"
   id="svg2583"
   inkscape:version="0.48.0 r9654"
   sodipodi:docname="Serif_and_sans-serif_03.svg">
  <metadata
     id="metadata3043">
    <rdf:RDF>
      <cc:Work
         rdf:about="">
        <dc:format>image/svg+xml</dc:format>
        <dc:type
           rdf:resource="http://purl.org/dc/dcmitype/StillImage" />
      </cc:Work>
    </rdf:RDF>
  </metadata>
  <sodipodi:namedview
     pagecolor="#ffffff"
     bordercolor="#666666"
     borderopacity="1"
     objecttolerance="10"
     gridtolerance="10"
     guidetolerance="10"
     inkscape:pageopacity="0"
     inkscape:pageshadow="2"
     inkscape:window-width="1014"
     inkscape:window-height="522"
     id="namedview3041"
     showgrid="false"
     inkscape:zoom="2.8284271"
     inkscape:cx="116.00847"
     inkscape:cy="22.115681"
     inkscape:window-x="0"
     inkscape:window-y="25"
     inkscape:window-maximized="1"
     inkscape:current-layer="svg2583" />
  <defs
     id="defs2585" />
  <path
     style="font-size:58.10294723999999889px;font-style:normal;font-variant:normal;font-weight:normal;font-stretch:normal;line-height:125%;letter-spacing:0px;word-spacing:0px;fill:#ff0000;fill-opacity:1;stroke:none;font-family:Liberation Serif;-inkscape-font-specification:Liberation Serif"
     d="M 11.375 42.4375 L 8.3125 42.4375 L 7.84375 43.71875 L 3.53125 44.5 L 3.53125 46 L 16.0625 46 L 16.0625 44.5 L 10.9375 43.71875 L 11.375 42.4375 z "
     id="path3866" />
  <path
     style="font-size:58.10294723999999889px;font-style:normal;font-variant:normal;font-weight:normal;font-stretch:normal;line-height:125%;letter-spacing:0px;word-spacing:0px;fill:#ff0000;fill-opacity:1;stroke:none;font-family:Liberation Serif;-inkscape-font-specification:Liberation Serif"
     d="M 39.21875 42.4375 L 33.09375 42.4375 L 33.53125 43.71875 L 28.4375 44.5 L 28.4375 46 L 44.5 46 L 44.5 44.5 L 39.6875 43.71875 L 39.21875 42.4375 z "
     id="path3864" />
  <path
     style="font-size:58.10294724px;font-style:normal;font-variant:normal;font-weight:normal;font-stretch:normal;line-height:125%;letter-spacing:0px;word-spacing:0px;fill:#000000;fill-opacity:1;stroke:none;font-family:Liberation Serif;-inkscape-font-specification:Liberation Serif"
     d="M 20.8125 7.65625 L 8.3125 42.4375 L 11.375 42.4375 L 14.78125 32.75 L 29.75 32.75 L 33.09375 42.4375 L 39.21875 42.4375 L 26.21875 7.65625 L 20.8125 7.65625 z M 22.15625 11.71875 L 28.875 30.1875 L 15.625 30.1875 L 22.15625 11.71875 z "
     id="path3050" />
  <path
     style="font-size:58.10294723999999889px;font-style:normal;font-variant:normal;font-weight:normal;font-stretch:normal;line-height:125%;letter-spacing:0px;word-spacing:0px;fill:#ff0000;fill-opacity:1;stroke:none;font-family:Liberation Serif;-inkscape-font-specification:Liberation Serif"
     d="M 66.65625 43.8125 L 62.1875 43.8125 L 62.65625 46 L 69.96875 46 L 69.96875 44.71875 L 66.65625 44.03125 L 66.65625 43.8125 z "
     id="path3876" />
  <path
     style="font-size:58.10294724px;font-style:normal;font-variant:normal;font-weight:normal;font-stretch:normal;line-height:125%;letter-spacing:0px;word-spacing:0px;fill:#000000;fill-opacity:1;stroke:none;font-family:Liberation Serif;-inkscape-font-specification:Liberation Serif"
     d="M 58.15625 18.75 C 56.624227 18.750028 55.19895 18.854476 53.875 19.0625 C 53.585546 19.104456 53.316981 19.173075 53.03125 19.21875 L 53.03125 22.0625 C 53.646344 21.752173 54.289503 21.4551 55.0625 21.25 C 55.989261 21.004146 56.90463 20.906275 57.8125 20.90625 C 58.606863 20.906275 59.282902 21.016483 59.8125 21.28125 C 60.342069 21.546067 60.759864 21.933431 61.0625 22.40625 C 61.384016 22.879116 61.617588 23.431792 61.75 24.09375 C 61.882384 24.736838 61.937484 25.455644 61.9375 26.25 L 61.9375 30.4375 L 57.9375 30.53125 C 57.029629 30.55018 56.126597 30.61186 55.21875 30.6875 C 54.329796 30.76317 53.469531 30.885714 52.65625 31.09375 C 51.861867 31.301816 51.106052 31.62174 50.40625 32 C 49.725351 32.359374 49.135666 32.819938 48.625 33.40625 C 48.114326 33.992587 47.721203 34.72373 47.4375 35.59375 C 47.153792 36.444877 46.999998 37.452358 47 38.625 C 46.999998 39.759829 47.116783 40.828991 47.34375 41.8125 C 47.570712 42.777103 47.970413 43.625031 48.5 44.34375 C 49.02958 45.043559 49.723714 45.571562 50.59375 45.96875 C 51.482688 46.365938 52.55761 46.562499 53.84375 46.5625 C 54.940736 46.562499 55.923544 46.445714 56.8125 46.21875 C 57.720346 45.991785 58.537842 45.727784 59.21875 45.40625 C 59.899629 45.065804 60.464642 44.722026 60.9375 44.34375 C 61.42924 43.965478 61.810027 43.627458 62.09375 43.34375 L 62.1875 43.8125 L 66.65625 43.8125 L 66.65625 26 C 66.656228 24.581492 66.434994 23.426795 66 22.5 C 65.583878 21.554338 64.975279 20.798523 64.21875 20.25 C 63.462183 19.701528 62.571487 19.320742 61.53125 19.09375 C 60.49098 18.866813 59.366714 18.750028 58.15625 18.75 z M 61.9375 32.40625 L 61.9375 41.875 C 60.991798 42.328933 60.03942 42.728634 59.09375 43.03125 C 58.166964 43.314959 57.067371 43.437503 55.78125 43.4375 C 53.07658 43.437503 51.718743 41.797569 51.71875 38.46875 C 51.718743 37.296108 51.860201 36.319059 52.125 35.5625 C 52.389785 34.805962 52.782908 34.216277 53.3125 33.78125 C 53.842076 33.346247 54.499201 33.045236 55.3125 32.875 C 56.125779 32.685876 57.102828 32.56909 58.21875 32.53125 L 61.9375 32.40625 z "
     id="path3871" />
  <path
     style="font-size:58.10294723999999889px;font-style:normal;font-variant:normal;font-weight:normal;font-stretch:normal;line-height:125%;letter-spacing:0px;word-spacing:0px;fill:#ff0000;fill-opacity:1;stroke:none;font-family:Liberation Serif;-inkscape-font-specification:Liberation Serif"
     d="M 53.03125 22.0625 L 53.03125 19.21875 C 52.028711 19.379007 51.019215 19.512708 50.0625 19.71875 L 50.0625 25.5625 L 51.65625 25.5625 L 52.625 22.21875 C 52.74112 22.152847 52.90888 22.124238 53.03125 22.0625 z "
     id="path3052" />
  <path
     style="font-size:58.10294723999999889px;font-style:normal;font-variant:normal;font-weight:normal;font-stretch:normal;line-height:125%;letter-spacing:0px;word-spacing:0px;fill:#ff0000;fill-opacity:1;stroke:none;font-family:Liberation Serif;-inkscape-font-specification:Liberation Serif"
     d="M 77.25 10.1875 L 77.25 7.96875 L 72.40625 7.96875 L 72.40625 9.46875 L 77.25 10.1875 z "
     id="path3885" />
  <path
     style="font-size:58.10294724px;font-style:normal;font-variant:normal;font-weight:normal;font-stretch:normal;line-height:125%;letter-spacing:0px;word-spacing:0px;fill:#000000;fill-opacity:1;stroke:none;font-family:Liberation Serif;-inkscape-font-specification:Liberation Serif"
     d="M 77.25 46 L 79.65625 46 C 81.434129 46 83.369314 46.03701 85.46875 46.09375 C 87.568156 46.15049 89.694144 46.1875 91.8125 46.1875 C 94.460397 46.1875 96.721265 45.904584 98.59375 45.375 C 100.46618 44.826503 101.9959 44.089602 103.1875 43.125 C 104.37903 42.141491 105.23272 40.955543 105.78125 39.59375 C 106.34863 38.213057 106.65621 36.708003 106.65625 35.0625 C 106.65621 33.738551 106.38564 32.515595 105.875 31.4375 C 105.38321 30.359434 104.67674 29.431729 103.75 28.65625 C 102.82319 27.861892 101.68659 27.241775 100.34375 26.75 C 99.01976 26.258263 97.551717 25.920244 95.90625 25.75 C 97.041047 25.504143 98.066623 25.148027 99.03125 24.65625 C 99.995818 24.145601 100.81908 23.518907 101.5 22.78125 C 102.19978 22.024725 102.74669 21.139789 103.125 20.15625 C 103.52215 19.172764 103.71871 18.097842 103.71875 16.90625 C 103.71871 15.525579 103.48515 14.284527 103.03125 13.1875 C 102.57729 12.071624 101.82805 11.119247 100.75 10.34375 C 99.671886 9.5683236 98.246612 8.9909752 96.46875 8.59375 C 94.690836 8.177686 92.448063 7.968788 89.78125 7.96875 L 77.25 7.96875 L 77.25 10.1875 L 77.28125 10.1875 L 77.28125 43.71875 L 77.25 43.71875 L 77.25 46 z M 82.75 10.5 L 88.625 10.5 C 90.327215 10.500036 91.764828 10.653829 92.9375 10.9375 C 94.110127 11.202327 95.07484 11.620123 95.8125 12.1875 C 96.550109 12.736031 97.084691 13.417829 97.40625 14.25 C 97.74667 15.082234 97.906222 16.071621 97.90625 17.1875 C 97.906222 18.360179 97.752429 19.398091 97.46875 20.34375 C 97.203931 21.289461 96.743368 22.10038 96.0625 22.78125 C 95.400495 23.443253 94.497463 23.965498 93.34375 24.34375 C 92.189992 24.703132 90.727706 24.906271 88.96875 24.90625 L 82.75 24.90625 L 82.75 10.5 z M 82.75 27.4375 L 89.5625 27.4375 C 91.54842 27.437519 93.268948 27.615985 94.6875 27.9375 C 96.106003 28.240137 97.236029 28.700701 98.125 29.34375 C 99.03283 29.967919 99.708873 30.754165 100.125 31.71875 C 100.55999 32.683363 100.78122 33.832302 100.78125 35.15625 C 100.78122 36.461306 100.59041 37.647254 100.25 38.6875 C 99.909521 39.727761 99.369183 40.606121 98.59375 41.34375 C 97.837174 42.062476 96.823115 42.634066 95.59375 43.03125 C 94.364334 43.428441 92.871618 43.625002 91.09375 43.625 L 88.1875 43.625 C 87.20397 43.60609 86.282024 43.56908 85.46875 43.53125 C 84.52305 43.51234 83.620018 43.47533 82.75 43.4375 L 82.75 27.4375 z "
     id="path3883" />
  <path
     style="font-size:58.10294723999999889px;font-style:normal;font-variant:normal;font-weight:normal;font-stretch:normal;line-height:125%;letter-spacing:0px;word-spacing:0px;fill:#ff0000;fill-opacity:1;stroke:none;font-family:Liberation Serif;-inkscape-font-specification:Liberation Serif"
     d="M 77.25 46 L 77.25 43.71875 L 72.40625 44.5 L 72.40625 46 L 77.25 46 z "
     id="path3054" />
  <path
     style="font-size:58.10294724px;font-style:normal;font-variant:normal;font-weight:normal;font-stretch:normal;line-height:125%;letter-spacing:0px;word-spacing:0px;fill:#000000;fill-opacity:1;stroke:none;font-family:Liberation Serif;-inkscape-font-specification:Liberation Serif"
     d="M 113.4375 12 L 113.4375 44.625 C 114.15621 44.908707 114.93013 45.160373 115.78125 45.40625 C 116.63236 45.633215 117.49838 45.829777 118.40625 46 C 119.3141 46.170224 120.22947 46.31168 121.15625 46.40625 C 122.10193 46.519734 123.02963 46.562499 123.9375 46.5625 C 126.07474 46.562499 127.91781 46.243394 129.46875 45.5625 C 131.03857 44.881607 132.35364 43.892222 133.375 42.625 C 134.39632 41.357786 135.13322 39.82806 135.625 38.03125 C 136.11673 36.215543 136.37497 34.188244 136.375 31.9375 C 136.37497 27.47388 135.41683 24.131513 133.46875 21.9375 C 131.53952 19.724621 128.75641 18.625027 125.125 18.625 C 123.64971 18.625027 122.29188 18.833925 121.0625 19.25 C 119.85201 19.647214 118.81986 20.181796 117.96875 20.84375 C 117.98765 20.389847 118.01235 19.898033 118.03125 19.40625 C 118.06905 18.895607 118.09374 18.398035 118.09375 17.90625 C 118.11315 17.395609 118.09374 16.922708 118.09375 16.46875 C 118.11315 15.995937 118.12499 15.578141 118.125 15.21875 L 118.125 5.6875 L 113.5 5.6875 L 113.5 12 L 113.4375 12 z M 123.84375 21.59375 C 124.95964 21.593774 125.96713 21.796913 126.875 22.15625 C 127.80176 22.49672 128.57566 23.061733 129.21875 23.875 C 129.88071 24.688311 130.37828 25.76981 130.71875 27.09375 C 131.07809 28.398814 131.28123 30.008316 131.28125 31.9375 C 131.28123 35.985046 130.67263 39.019826 129.5 41.0625 C 128.32734 43.105185 126.45383 44.125002 123.84375 44.125 C 122.87914 44.125002 121.86508 44.10691 120.84375 44.03125 C 119.8224 43.955597 118.91937 43.838812 118.125 43.6875 L 118.125 22.53125 C 118.46544 22.379964 118.8709 22.269756 119.34375 22.15625 C 119.81658 22.042791 120.33307 21.95068 120.84375 21.875 C 121.35441 21.780456 121.86432 21.6941 122.375 21.65625 C 122.90457 21.61845 123.38981 21.593774 123.84375 21.59375 z "
     id="path3893" />
  <path
     style="font-size:58.10294723999999889px;font-style:normal;font-variant:normal;font-weight:normal;font-stretch:normal;line-height:125%;letter-spacing:0px;word-spacing:0px;fill:#ff0000;fill-opacity:1;stroke:none;font-family:Liberation Serif;-inkscape-font-specification:Liberation Serif"
     d="M 113.4375 12 L 113.5 12 L 113.5 5.6875 L 109.53125 5.6875 L 109.53125 6.96875 L 113.4375 7.65625 L 113.4375 12 z "
     id="path3056" />
  <path
     style="font-size:58.10294723999999889px;font-style:normal;font-variant:normal;font-weight:normal;font-stretch:normal;line-height:125%;letter-spacing:0px;word-spacing:0px;fill:#ff0000;fill-opacity:1;stroke:none;font-family:Liberation Serif;-inkscape-font-specification:Liberation Serif"
     d="M 170.40625 42.03125 L 170.40625 45.625 C 170.67828 45.573891 170.98676 45.522372 171.25 45.46875 C 172.2713 45.241786 173.17434 45.008216 173.96875 44.78125 L 174.125 35.84375 L 172.28125 35.84375 L 171.25 41.53125 C 171.02501 41.704313 170.6827 41.862148 170.40625 42.03125 z "
     id="path3902" />
  <path
     style="font-size:58.10294724px;font-style:normal;font-variant:normal;font-weight:normal;font-stretch:normal;line-height:125%;letter-spacing:0px;word-spacing:0px;fill:#000000;fill-opacity:1;stroke:none;font-family:Liberation Serif;-inkscape-font-specification:Liberation Serif"
     d="M 170.40625 8.40625 C 169.53046 8.2530803 168.62739 8.1214306 167.65625 8 C 166.61597 7.8676421 165.49746 7.763193 164.34375 7.6875 C 163.18998 7.5929701 161.96127 7.5312885 160.65625 7.53125 C 157.51655 7.5312885 154.7211 7.9244119 152.28125 8.71875 C 149.84137 9.5131627 147.77707 10.729542 146.09375 12.375 C 144.42934 14.001612 143.17019 16.065919 142.28125 18.5625 C 141.41121 21.059136 140.96875 24.001802 140.96875 27.40625 C 140.96875 30.394633 141.41121 33.085635 142.28125 35.46875 C 143.15127 37.832973 144.42934 39.854513 146.09375 41.5 C 147.77706 43.145497 149.82903 44.411221 152.25 45.28125 C 154.68985 46.151281 157.46063 46.562499 160.5625 46.5625 C 161.82969 46.562499 163.0765 46.53207 164.34375 46.4375 C 165.61094 46.342931 166.81499 46.201473 167.96875 46.03125 C 168.82511 45.904899 169.6228 45.772193 170.40625 45.625 L 170.40625 42.03125 C 170.07844 42.231769 169.8064 42.430049 169.40625 42.625 C 168.6875 42.96545 167.86424 43.266461 166.9375 43.53125 C 166.02961 43.796044 165.0468 44.004942 163.96875 44.15625 C 162.90956 44.307564 161.76638 44.375002 160.59375 44.375 C 158.43757 44.375002 156.51472 44.043559 154.8125 43.34375 C 153.12917 42.643946 151.70389 41.587119 150.53125 40.1875 C 149.35859 38.768978 148.46789 36.993346 147.84375 34.875 C 147.21959 32.737763 146.90624 30.249902 146.90625 27.375 C 146.90624 24.102949 147.21959 21.325593 147.84375 19.09375 C 148.48681 16.843046 149.40217 15.049319 150.59375 13.6875 C 151.7853 12.306832 153.24759 11.324024 154.96875 10.71875 C 156.7088 10.113547 158.66207 9.8125362 160.875 9.8125 C 162.69069 9.8125362 164.47867 10.014856 166.21875 10.46875 C 167.80997 10.862315 169.17099 11.45317 170.40625 12.15625 L 170.40625 8.40625 z "
     id="path3900" />
  <path
     style="font-size:58.10294723999999889px;font-style:normal;font-variant:normal;font-weight:normal;font-stretch:normal;line-height:125%;letter-spacing:0px;word-spacing:0px;fill:#ff0000;fill-opacity:1;stroke:none;font-family:Liberation Serif;-inkscape-font-specification:Liberation Serif"
     d="M 170.40625 8.40625 L 170.40625 12.15625 C 170.53646 12.230361 170.7175 12.2662 170.84375 12.34375 L 171.6875 17.28125 L 173.5625 17.28125 L 173.40625 8.96875 C 172.51727 8.7796501 171.6019 8.6077609 170.65625 8.4375 C 170.57767 8.42336 170.48561 8.4201293 170.40625 8.40625 z "
     id="path3058" />
  <path
     style="font-size:58.10294724px;font-style:normal;font-variant:normal;font-weight:normal;font-stretch:normal;line-height:125%;letter-spacing:0px;word-spacing:0px;fill:#000000;fill-opacity:1;stroke:none;font-family:Liberation Serif;-inkscape-font-specification:Liberation Serif"
     d="M 198.34375 19.125 C 197.83125 19.05134 197.39521 18.971566 196.84375 18.90625 C 195.40629 18.717144 193.90699 18.625027 192.375 18.625 C 190.52144 18.625027 188.81983 18.876693 187.25 19.40625 C 185.69907 19.93586 184.35357 20.771452 183.21875 21.90625 C 182.08392 23.022183 181.20556 24.459796 180.5625 26.21875 C 179.93834 27.958831 179.625 30.04781 179.625 32.46875 C 179.625 34.681666 179.85199 36.678533 180.34375 38.4375 C 180.83551 40.177568 181.61599 41.633276 182.65625 42.84375 C 183.6965 44.05423 185.02967 44.981934 186.65625 45.625 C 188.30174 46.249152 190.28627 46.562499 192.59375 46.5625 C 193.38811 46.562499 194.19903 46.53207 195.03125 46.4375 C 195.88235 46.342931 196.69327 46.189137 197.46875 46 C 198.2442 45.829777 198.97533 45.608542 199.65625 45.34375 C 200.33712 45.060045 200.91447 44.734362 201.40625 44.375 L 201.40625 42.6875 C 200.97121 42.819899 200.47364 42.949021 199.90625 43.0625 C 199.35773 43.175985 198.76804 43.28043 198.125 43.375 C 197.50082 43.450658 196.83712 43.50576 196.15625 43.5625 C 195.49425 43.60033 194.83055 43.625002 194.1875 43.625 C 192.31502 43.625002 190.76063 43.342087 189.53125 42.8125 C 188.32076 42.28292 187.37496 41.558354 186.65625 40.59375 C 185.93752 39.629156 185.43995 38.455546 185.15625 37.09375 C 184.87254 35.713059 184.71875 34.170996 184.71875 32.46875 C 184.71875 30.444997 184.89721 28.706374 185.21875 27.25 C 185.55919 25.793664 186.04443 24.601957 186.6875 23.65625 C 187.34947 22.710587 188.13572 21.99754 189.0625 21.5625 C 190.00818 21.108596 191.08309 20.906275 192.3125 20.90625 C 193.39056 20.906275 194.42272 21.004146 195.40625 21.25 C 196.40866 21.495903 197.26893 21.821586 197.96875 22.21875 L 198.34375 23.65625 L 198.34375 19.125 z "
     id="path3907" />
  <path
     style="font-size:58.10294723999999889px;font-style:normal;font-variant:normal;font-weight:normal;font-stretch:normal;line-height:125%;letter-spacing:0px;word-spacing:0px;fill:#ff0000;fill-opacity:1;stroke:none;font-family:Liberation Serif;-inkscape-font-specification:Liberation Serif"
     d="M 198.34375 19.125 L 198.34375 23.65625 L 199.1875 26.9375 L 200.75 26.9375 L 200.75 19.5 C 200.02722 19.360126 199.1671 19.243338 198.34375 19.125 z "
     id="path3060" />
</svg>
